%TF.GenerationSoftware,KiCad,Pcbnew,7.0.7*%
%TF.CreationDate,2023-11-14T16:51:01-06:00*%
%TF.ProjectId,Serial_To_RJ45,53657269-616c-45f5-946f-5f524a34352e,rev?*%
%TF.SameCoordinates,Original*%
%TF.FileFunction,Legend,Top*%
%TF.FilePolarity,Positive*%
%FSLAX46Y46*%
G04 Gerber Fmt 4.6, Leading zero omitted, Abs format (unit mm)*
G04 Created by KiCad (PCBNEW 7.0.7) date 2023-11-14 16:51:01*
%MOMM*%
%LPD*%
G01*
G04 APERTURE LIST*
%ADD10C,0.254000*%
%ADD11C,0.120000*%
%ADD12C,0.200000*%
G04 APERTURE END LIST*
D10*
X203000764Y-110095385D02*
X203907907Y-110095385D01*
X203907907Y-110095385D02*
X204089335Y-110155862D01*
X204089335Y-110155862D02*
X204210288Y-110276814D01*
X204210288Y-110276814D02*
X204270764Y-110458243D01*
X204270764Y-110458243D02*
X204270764Y-110579195D01*
X204270764Y-108825385D02*
X204270764Y-109551100D01*
X204270764Y-109188243D02*
X203000764Y-109188243D01*
X203000764Y-109188243D02*
X203182192Y-109309195D01*
X203182192Y-109309195D02*
X203303145Y-109430147D01*
X203303145Y-109430147D02*
X203363621Y-109551100D01*
D11*
%TO.C,J2*%
X192990416Y-123486440D02*
X192990416Y-122156440D01*
X194320416Y-123486440D02*
X192990416Y-123486440D01*
X195590416Y-123486440D02*
X205810416Y-123486440D01*
X195590416Y-123486440D02*
X195590416Y-120886440D01*
X205810416Y-123486440D02*
X205810416Y-118286440D01*
X192990416Y-120886440D02*
X192990416Y-118286440D01*
X195590416Y-120886440D02*
X192990416Y-120886440D01*
X192990416Y-118286440D02*
X205810416Y-118286440D01*
D12*
%TO.C,J1*%
X198246446Y-117142053D02*
X198246446Y-117142053D01*
X198246446Y-117142053D02*
X198246446Y-117142053D01*
X198246446Y-117042053D02*
X198246446Y-117042053D01*
X193546446Y-116447053D02*
X193546446Y-102947053D01*
X200096446Y-116447053D02*
X193546446Y-116447053D01*
X213846446Y-116447053D02*
X201896446Y-116447053D01*
X193546446Y-102947053D02*
X200096446Y-102947053D01*
X201896446Y-102947053D02*
X213846446Y-102897053D01*
X213846446Y-102897053D02*
X213846446Y-116447053D01*
X198246446Y-117042053D02*
G75*
G03*
X198246446Y-117142053I0J-50000D01*
G01*
X198246446Y-117142053D02*
G75*
G03*
X198246446Y-117042053I0J50000D01*
G01*
X198246446Y-117142053D02*
G75*
G03*
X198246446Y-117042053I0J50000D01*
G01*
%TD*%
M02*
