M48
; DRILL file {KiCad 7.0.7} date Tue Nov 14 17:33:45 2023
; FORMAT={-:-/ absolute / inch / decimal}
; #@! TF.CreationDate,2023-11-14T17:33:45-06:00
; #@! TF.GenerationSoftware,Kicad,Pcbnew,7.0.7
; #@! TF.FileFunction,Plated,1,2,PTH
FMAT,2
INCH
; #@! TA.AperFunction,Plated,PTH,ComponentDrill
T1C0.0236
; #@! TA.AperFunction,Plated,PTH,ComponentDrill
T2C0.0354
; #@! TA.AperFunction,Plated,PTH,ComponentDrill
T3C0.0394
%
G90
G05
T1
X7.7888Y-4.138
X7.7888Y-4.238
X7.7888Y-4.338
X7.7888Y-4.438
X7.8888Y-4.188
X7.8888Y-4.288
X7.8888Y-4.388
X7.8888Y-4.488
T2
X8.2215Y-4.6752
X8.2215Y-4.8051
X8.3199Y-4.6752
X8.3199Y-4.8051
X8.4183Y-4.6752
X8.4183Y-4.8051
T3
X7.6504Y-4.7093
X7.6504Y-4.8093
X7.7504Y-4.7093
X7.7504Y-4.8093
X7.8504Y-4.7093
X7.8504Y-4.8093
X7.9504Y-4.7093
X7.9504Y-4.8093
X8.0504Y-4.7093
X8.0504Y-4.8093
T0
M30
