%TF.GenerationSoftware,KiCad,Pcbnew,7.0.7*%
%TF.CreationDate,2023-11-14T16:51:00-06:00*%
%TF.ProjectId,Serial_To_RJ45,53657269-616c-45f5-946f-5f524a34352e,rev?*%
%TF.SameCoordinates,Original*%
%TF.FileFunction,Copper,L1,Top*%
%TF.FilePolarity,Positive*%
%FSLAX46Y46*%
G04 Gerber Fmt 4.6, Leading zero omitted, Abs format (unit mm)*
G04 Created by KiCad (PCBNEW 7.0.7) date 2023-11-14 16:51:00*
%MOMM*%
%LPD*%
G01*
G04 APERTURE LIST*
%TA.AperFunction,ComponentPad*%
%ADD10R,1.700000X1.700000*%
%TD*%
%TA.AperFunction,ComponentPad*%
%ADD11O,1.700000X1.700000*%
%TD*%
%TA.AperFunction,ComponentPad*%
%ADD12R,1.100000X1.100000*%
%TD*%
%TA.AperFunction,ComponentPad*%
%ADD13C,1.100000*%
%TD*%
%TA.AperFunction,SMDPad,CuDef*%
%ADD14R,1.200000X4.000000*%
%TD*%
%TA.AperFunction,Conductor*%
%ADD15C,0.250000*%
%TD*%
G04 APERTURE END LIST*
D10*
%TO.P,J2,1,Pin_1*%
%TO.N,unconnected-(J2-Pin_1-Pad1)*%
X194320416Y-122156440D03*
D11*
%TO.P,J2,2,Pin_2*%
%TO.N,unconnected-(J2-Pin_2-Pad2)*%
X194320416Y-119616440D03*
%TO.P,J2,3,Pin_3*%
%TO.N,/RXD*%
X196860416Y-122156440D03*
%TO.P,J2,4,Pin_4*%
%TO.N,unconnected-(J2-Pin_4-Pad4)*%
X196860416Y-119616440D03*
%TO.P,J2,5,Pin_5*%
%TO.N,/TXD*%
X199400416Y-122156440D03*
%TO.P,J2,6,Pin_6*%
%TO.N,unconnected-(J2-Pin_6-Pad6)*%
X199400416Y-119616440D03*
%TO.P,J2,7,Pin_7*%
%TO.N,unconnected-(J2-Pin_7-Pad7)*%
X201940416Y-122156440D03*
%TO.P,J2,8,Pin_8*%
%TO.N,unconnected-(J2-Pin_8-Pad8)*%
X201940416Y-119616440D03*
%TO.P,J2,9,Pin_9*%
%TO.N,GND*%
X204480416Y-122156440D03*
%TO.P,J2,10,Pin_10*%
%TO.N,unconnected-(J2-Pin_10-Pad10)*%
X204480416Y-119616440D03*
%TD*%
D12*
%TO.P,J1,1,1*%
%TO.N,unconnected-(J1-Pad1)*%
X198246446Y-114142053D03*
D13*
%TO.P,J1,2,2*%
%TO.N,unconnected-(J1-Pad2)*%
X195706446Y-112872053D03*
%TO.P,J1,3,3*%
%TO.N,/TXD*%
X198246446Y-111602053D03*
%TO.P,J1,4,4*%
%TO.N,GND*%
X195706446Y-110332053D03*
%TO.P,J1,5,5*%
X198246446Y-109062053D03*
%TO.P,J1,6,6*%
%TO.N,/RXD*%
X195706446Y-107792053D03*
%TO.P,J1,7,7*%
%TO.N,unconnected-(J1-Pad7)*%
X198246446Y-106522053D03*
%TO.P,J1,8,8*%
%TO.N,unconnected-(J1-Pad8)*%
X195706446Y-105252053D03*
D14*
%TO.P,J1,G1,GROUND_1*%
%TO.N,GND*%
X200946446Y-114447053D03*
%TO.P,J1,G2,GROUND_2*%
X200946446Y-104947053D03*
%TD*%
D15*
%TO.N,GND*%
X200946446Y-104947053D02*
X200946446Y-108827660D01*
X200946446Y-108827660D02*
X200712053Y-109062053D01*
X200946446Y-114447053D02*
X203247053Y-114447053D01*
X203275000Y-114475000D02*
X203275000Y-111625000D01*
X203275000Y-120951024D02*
X203275000Y-114475000D01*
X203247053Y-114447053D02*
X203275000Y-114475000D01*
X203275000Y-111625000D02*
X200712053Y-109062053D01*
%TO.N,/TXD*%
X198225416Y-115913083D02*
X197350000Y-115037667D01*
X197350000Y-115037667D02*
X197350000Y-112498499D01*
X199400416Y-122156440D02*
X198225416Y-120981440D01*
X197350000Y-112498499D02*
X198246446Y-111602053D01*
X198225416Y-120981440D02*
X198225416Y-115913083D01*
%TO.N,GND*%
X200712053Y-109062053D02*
X198246446Y-109062053D01*
X204480416Y-122156440D02*
X203275000Y-120951024D01*
%TO.N,/RXD*%
X194825000Y-108673499D02*
X195706446Y-107792053D01*
X195685416Y-114088460D02*
X194825000Y-113228044D01*
X195685416Y-120981440D02*
X195685416Y-114088460D01*
X194825000Y-113228044D02*
X194825000Y-108673499D01*
X196860416Y-122156440D02*
X195685416Y-120981440D01*
%TD*%
M02*
