%TF.GenerationSoftware,KiCad,Pcbnew,7.0.7*%
%TF.CreationDate,2023-11-14T17:33:56-06:00*%
%TF.ProjectId,Serial_To_RJ45,53657269-616c-45f5-946f-5f524a34352e,rev?*%
%TF.SameCoordinates,Original*%
%TF.FileFunction,Legend,Bot*%
%TF.FilePolarity,Positive*%
%FSLAX46Y46*%
G04 Gerber Fmt 4.6, Leading zero omitted, Abs format (unit mm)*
G04 Created by KiCad (PCBNEW 7.0.7) date 2023-11-14 17:33:56*
%MOMM*%
%LPD*%
G01*
G04 APERTURE LIST*
%ADD10C,0.150000*%
%ADD11C,0.010000*%
G04 APERTURE END LIST*
D10*
X202831506Y-103009819D02*
X202831506Y-103724104D01*
X202831506Y-103724104D02*
X202879125Y-103866961D01*
X202879125Y-103866961D02*
X202974363Y-103962200D01*
X202974363Y-103962200D02*
X203117220Y-104009819D01*
X203117220Y-104009819D02*
X203212458Y-104009819D01*
X201879125Y-104009819D02*
X202355315Y-104009819D01*
X202355315Y-104009819D02*
X202355315Y-103009819D01*
X200974363Y-103914580D02*
X201021982Y-103962200D01*
X201021982Y-103962200D02*
X201164839Y-104009819D01*
X201164839Y-104009819D02*
X201260077Y-104009819D01*
X201260077Y-104009819D02*
X201402934Y-103962200D01*
X201402934Y-103962200D02*
X201498172Y-103866961D01*
X201498172Y-103866961D02*
X201545791Y-103771723D01*
X201545791Y-103771723D02*
X201593410Y-103581247D01*
X201593410Y-103581247D02*
X201593410Y-103438390D01*
X201593410Y-103438390D02*
X201545791Y-103247914D01*
X201545791Y-103247914D02*
X201498172Y-103152676D01*
X201498172Y-103152676D02*
X201402934Y-103057438D01*
X201402934Y-103057438D02*
X201260077Y-103009819D01*
X201260077Y-103009819D02*
X201164839Y-103009819D01*
X201164839Y-103009819D02*
X201021982Y-103057438D01*
X201021982Y-103057438D02*
X200974363Y-103105057D01*
X200260077Y-103009819D02*
X200260077Y-103724104D01*
X200260077Y-103724104D02*
X200307696Y-103866961D01*
X200307696Y-103866961D02*
X200402934Y-103962200D01*
X200402934Y-103962200D02*
X200545791Y-104009819D01*
X200545791Y-104009819D02*
X200641029Y-104009819D01*
X199307696Y-104009819D02*
X199783886Y-104009819D01*
X199783886Y-104009819D02*
X199783886Y-103009819D01*
X198402934Y-103914580D02*
X198450553Y-103962200D01*
X198450553Y-103962200D02*
X198593410Y-104009819D01*
X198593410Y-104009819D02*
X198688648Y-104009819D01*
X198688648Y-104009819D02*
X198831505Y-103962200D01*
X198831505Y-103962200D02*
X198926743Y-103866961D01*
X198926743Y-103866961D02*
X198974362Y-103771723D01*
X198974362Y-103771723D02*
X199021981Y-103581247D01*
X199021981Y-103581247D02*
X199021981Y-103438390D01*
X199021981Y-103438390D02*
X198974362Y-103247914D01*
X198974362Y-103247914D02*
X198926743Y-103152676D01*
X198926743Y-103152676D02*
X198831505Y-103057438D01*
X198831505Y-103057438D02*
X198688648Y-103009819D01*
X198688648Y-103009819D02*
X198593410Y-103009819D01*
X198593410Y-103009819D02*
X198450553Y-103057438D01*
X198450553Y-103057438D02*
X198402934Y-103105057D01*
X197688648Y-103009819D02*
X197688648Y-103724104D01*
X197688648Y-103724104D02*
X197736267Y-103866961D01*
X197736267Y-103866961D02*
X197831505Y-103962200D01*
X197831505Y-103962200D02*
X197974362Y-104009819D01*
X197974362Y-104009819D02*
X198069600Y-104009819D01*
X196736267Y-104009819D02*
X197212457Y-104009819D01*
X197212457Y-104009819D02*
X197212457Y-103009819D01*
X195831505Y-103914580D02*
X195879124Y-103962200D01*
X195879124Y-103962200D02*
X196021981Y-104009819D01*
X196021981Y-104009819D02*
X196117219Y-104009819D01*
X196117219Y-104009819D02*
X196260076Y-103962200D01*
X196260076Y-103962200D02*
X196355314Y-103866961D01*
X196355314Y-103866961D02*
X196402933Y-103771723D01*
X196402933Y-103771723D02*
X196450552Y-103581247D01*
X196450552Y-103581247D02*
X196450552Y-103438390D01*
X196450552Y-103438390D02*
X196402933Y-103247914D01*
X196402933Y-103247914D02*
X196355314Y-103152676D01*
X196355314Y-103152676D02*
X196260076Y-103057438D01*
X196260076Y-103057438D02*
X196117219Y-103009819D01*
X196117219Y-103009819D02*
X196021981Y-103009819D01*
X196021981Y-103009819D02*
X195879124Y-103057438D01*
X195879124Y-103057438D02*
X195831505Y-103105057D01*
X195117219Y-103009819D02*
X195117219Y-103724104D01*
X195117219Y-103724104D02*
X195164838Y-103866961D01*
X195164838Y-103866961D02*
X195260076Y-103962200D01*
X195260076Y-103962200D02*
X195402933Y-104009819D01*
X195402933Y-104009819D02*
X195498171Y-104009819D01*
X194164838Y-104009819D02*
X194641028Y-104009819D01*
X194641028Y-104009819D02*
X194641028Y-103009819D01*
X193260076Y-103914580D02*
X193307695Y-103962200D01*
X193307695Y-103962200D02*
X193450552Y-104009819D01*
X193450552Y-104009819D02*
X193545790Y-104009819D01*
X193545790Y-104009819D02*
X193688647Y-103962200D01*
X193688647Y-103962200D02*
X193783885Y-103866961D01*
X193783885Y-103866961D02*
X193831504Y-103771723D01*
X193831504Y-103771723D02*
X193879123Y-103581247D01*
X193879123Y-103581247D02*
X193879123Y-103438390D01*
X193879123Y-103438390D02*
X193831504Y-103247914D01*
X193831504Y-103247914D02*
X193783885Y-103152676D01*
X193783885Y-103152676D02*
X193688647Y-103057438D01*
X193688647Y-103057438D02*
X193545790Y-103009819D01*
X193545790Y-103009819D02*
X193450552Y-103009819D01*
X193450552Y-103009819D02*
X193307695Y-103057438D01*
X193307695Y-103057438D02*
X193260076Y-103105057D01*
%TO.C,REF\u002A\u002A*%
D11*
X210489941Y-110915282D02*
X210521774Y-110927758D01*
X210558743Y-110944602D01*
X210558743Y-111431196D01*
X210512812Y-111477127D01*
X210502320Y-111487427D01*
X210473255Y-111510320D01*
X210443943Y-111517735D01*
X210400326Y-111514321D01*
X210382568Y-111512114D01*
X210336767Y-111507445D01*
X210304743Y-111505585D01*
X210295244Y-111505869D01*
X210256274Y-111508948D01*
X210209160Y-111514321D01*
X210194085Y-111516168D01*
X210156110Y-111516893D01*
X210128325Y-111505429D01*
X210096674Y-111477127D01*
X210050743Y-111431196D01*
X210050743Y-111171055D01*
X210051101Y-111094180D01*
X210052216Y-111020886D01*
X210053952Y-110962850D01*
X210056167Y-110924663D01*
X210058721Y-110910914D01*
X210059256Y-110910951D01*
X210077808Y-110917793D01*
X210109153Y-110932868D01*
X210151608Y-110954822D01*
X210155604Y-111183240D01*
X210159600Y-111411657D01*
X210246686Y-111411657D01*
X210250657Y-111161286D01*
X210251916Y-111093227D01*
X210253718Y-111020482D01*
X210255671Y-110962730D01*
X210257612Y-110924648D01*
X210259377Y-110910914D01*
X210259885Y-110910962D01*
X210277482Y-110916015D01*
X210309834Y-110926849D01*
X210355543Y-110942783D01*
X210355765Y-111162706D01*
X210355988Y-111200909D01*
X210357531Y-111275146D01*
X210360292Y-111337145D01*
X210363977Y-111381308D01*
X210368292Y-111402041D01*
X210383732Y-111413131D01*
X210415241Y-111416556D01*
X210449886Y-111411657D01*
X210453857Y-111161286D01*
X210455278Y-111097663D01*
X210458225Y-111022356D01*
X210462079Y-110963286D01*
X210466542Y-110924718D01*
X210471317Y-110910914D01*
X210489941Y-110915282D01*
G36*
X210489941Y-110915282D02*
G01*
X210521774Y-110927758D01*
X210558743Y-110944602D01*
X210558743Y-111431196D01*
X210512812Y-111477127D01*
X210502320Y-111487427D01*
X210473255Y-111510320D01*
X210443943Y-111517735D01*
X210400326Y-111514321D01*
X210382568Y-111512114D01*
X210336767Y-111507445D01*
X210304743Y-111505585D01*
X210295244Y-111505869D01*
X210256274Y-111508948D01*
X210209160Y-111514321D01*
X210194085Y-111516168D01*
X210156110Y-111516893D01*
X210128325Y-111505429D01*
X210096674Y-111477127D01*
X210050743Y-111431196D01*
X210050743Y-111171055D01*
X210051101Y-111094180D01*
X210052216Y-111020886D01*
X210053952Y-110962850D01*
X210056167Y-110924663D01*
X210058721Y-110910914D01*
X210059256Y-110910951D01*
X210077808Y-110917793D01*
X210109153Y-110932868D01*
X210151608Y-110954822D01*
X210155604Y-111183240D01*
X210159600Y-111411657D01*
X210246686Y-111411657D01*
X210250657Y-111161286D01*
X210251916Y-111093227D01*
X210253718Y-111020482D01*
X210255671Y-110962730D01*
X210257612Y-110924648D01*
X210259377Y-110910914D01*
X210259885Y-110910962D01*
X210277482Y-110916015D01*
X210309834Y-110926849D01*
X210355543Y-110942783D01*
X210355765Y-111162706D01*
X210355988Y-111200909D01*
X210357531Y-111275146D01*
X210360292Y-111337145D01*
X210363977Y-111381308D01*
X210368292Y-111402041D01*
X210383732Y-111413131D01*
X210415241Y-111416556D01*
X210449886Y-111411657D01*
X210453857Y-111161286D01*
X210455278Y-111097663D01*
X210458225Y-111022356D01*
X210462079Y-110963286D01*
X210466542Y-110924718D01*
X210471317Y-110910914D01*
X210489941Y-110915282D01*
G37*
X215101714Y-111201200D02*
X215101701Y-111216935D01*
X215100914Y-111287119D01*
X215098210Y-111336022D01*
X215092606Y-111370178D01*
X215083119Y-111396124D01*
X215068768Y-111420397D01*
X215065237Y-111425433D01*
X215027878Y-111465143D01*
X214985311Y-111495092D01*
X214963452Y-111504810D01*
X214884908Y-111521020D01*
X214807231Y-111510535D01*
X214735645Y-111474707D01*
X214675374Y-111414887D01*
X214670286Y-111406873D01*
X214653730Y-111360342D01*
X214642573Y-111295552D01*
X214637160Y-111220727D01*
X214637768Y-111151513D01*
X214784248Y-111151513D01*
X214785402Y-111247399D01*
X214785866Y-111253569D01*
X214792629Y-111306478D01*
X214804671Y-111340029D01*
X214825005Y-111363016D01*
X214859097Y-111384548D01*
X214892814Y-111385680D01*
X214927543Y-111360857D01*
X214933584Y-111354325D01*
X214945417Y-111334779D01*
X214952404Y-111306386D01*
X214955727Y-111262430D01*
X214956571Y-111196192D01*
X214955125Y-111134150D01*
X214947907Y-111075042D01*
X214933006Y-111037686D01*
X214908636Y-111018152D01*
X214873008Y-111012514D01*
X214859440Y-111013635D01*
X214821430Y-111034194D01*
X214796312Y-111080299D01*
X214784248Y-111151513D01*
X214637768Y-111151513D01*
X214637833Y-111144096D01*
X214644937Y-111073882D01*
X214658815Y-111018312D01*
X214676649Y-110981301D01*
X214726855Y-110923733D01*
X214794885Y-110887962D01*
X214878158Y-110875665D01*
X214900398Y-110876331D01*
X214965891Y-110889947D01*
X215019687Y-110924249D01*
X215069057Y-110983338D01*
X215071995Y-110987722D01*
X215085287Y-111011299D01*
X215093932Y-111037949D01*
X215098904Y-111074159D01*
X215101174Y-111126413D01*
X215101678Y-111196192D01*
X215101714Y-111201200D01*
G36*
X215101714Y-111201200D02*
G01*
X215101701Y-111216935D01*
X215100914Y-111287119D01*
X215098210Y-111336022D01*
X215092606Y-111370178D01*
X215083119Y-111396124D01*
X215068768Y-111420397D01*
X215065237Y-111425433D01*
X215027878Y-111465143D01*
X214985311Y-111495092D01*
X214963452Y-111504810D01*
X214884908Y-111521020D01*
X214807231Y-111510535D01*
X214735645Y-111474707D01*
X214675374Y-111414887D01*
X214670286Y-111406873D01*
X214653730Y-111360342D01*
X214642573Y-111295552D01*
X214637160Y-111220727D01*
X214637768Y-111151513D01*
X214784248Y-111151513D01*
X214785402Y-111247399D01*
X214785866Y-111253569D01*
X214792629Y-111306478D01*
X214804671Y-111340029D01*
X214825005Y-111363016D01*
X214859097Y-111384548D01*
X214892814Y-111385680D01*
X214927543Y-111360857D01*
X214933584Y-111354325D01*
X214945417Y-111334779D01*
X214952404Y-111306386D01*
X214955727Y-111262430D01*
X214956571Y-111196192D01*
X214955125Y-111134150D01*
X214947907Y-111075042D01*
X214933006Y-111037686D01*
X214908636Y-111018152D01*
X214873008Y-111012514D01*
X214859440Y-111013635D01*
X214821430Y-111034194D01*
X214796312Y-111080299D01*
X214784248Y-111151513D01*
X214637768Y-111151513D01*
X214637833Y-111144096D01*
X214644937Y-111073882D01*
X214658815Y-111018312D01*
X214676649Y-110981301D01*
X214726855Y-110923733D01*
X214794885Y-110887962D01*
X214878158Y-110875665D01*
X214900398Y-110876331D01*
X214965891Y-110889947D01*
X215019687Y-110924249D01*
X215069057Y-110983338D01*
X215071995Y-110987722D01*
X215085287Y-111011299D01*
X215093932Y-111037949D01*
X215098904Y-111074159D01*
X215101174Y-111126413D01*
X215101678Y-111196192D01*
X215101714Y-111201200D01*
G37*
X208976590Y-111218622D02*
X208976307Y-111257305D01*
X208972762Y-111333521D01*
X208963483Y-111389294D01*
X208946375Y-111430613D01*
X208919344Y-111463467D01*
X208880292Y-111493846D01*
X208855445Y-111507660D01*
X208815615Y-111516965D01*
X208759665Y-111516230D01*
X208728385Y-111513283D01*
X208690653Y-111504283D01*
X208660494Y-111484720D01*
X208625408Y-111448267D01*
X208620720Y-111442943D01*
X208589177Y-111401969D01*
X208574128Y-111366283D01*
X208570286Y-111323966D01*
X208570286Y-111261779D01*
X208613742Y-111278182D01*
X208645424Y-111297356D01*
X208672962Y-111342347D01*
X208678711Y-111356752D01*
X208710855Y-111397546D01*
X208754611Y-111418081D01*
X208802254Y-111416235D01*
X208846057Y-111389886D01*
X208861111Y-111373455D01*
X208874763Y-111348667D01*
X208870493Y-111326144D01*
X208845916Y-111302964D01*
X208798651Y-111276202D01*
X208726314Y-111242934D01*
X208577543Y-111177816D01*
X208573595Y-111113308D01*
X208575079Y-111072220D01*
X208672010Y-111072220D01*
X208679368Y-111097657D01*
X208712848Y-111124814D01*
X208773614Y-111155714D01*
X208783669Y-111160190D01*
X208831751Y-111181017D01*
X208867726Y-111195665D01*
X208884444Y-111201200D01*
X208886977Y-111197126D01*
X208887993Y-111172247D01*
X208884369Y-111132257D01*
X208875242Y-111093152D01*
X208846773Y-111043884D01*
X208805678Y-111016122D01*
X208756590Y-111012364D01*
X208704144Y-111035109D01*
X208689609Y-111046481D01*
X208672010Y-111072220D01*
X208575079Y-111072220D01*
X208575338Y-111065064D01*
X208597281Y-111004096D01*
X208624979Y-110970497D01*
X208682405Y-110932966D01*
X208750527Y-110914006D01*
X208820947Y-110915507D01*
X208885267Y-110939355D01*
X208899426Y-110948513D01*
X208931904Y-110976849D01*
X208954116Y-111012695D01*
X208967804Y-111061384D01*
X208974715Y-111128249D01*
X208975628Y-111172247D01*
X208976590Y-111218622D01*
G36*
X208976590Y-111218622D02*
G01*
X208976307Y-111257305D01*
X208972762Y-111333521D01*
X208963483Y-111389294D01*
X208946375Y-111430613D01*
X208919344Y-111463467D01*
X208880292Y-111493846D01*
X208855445Y-111507660D01*
X208815615Y-111516965D01*
X208759665Y-111516230D01*
X208728385Y-111513283D01*
X208690653Y-111504283D01*
X208660494Y-111484720D01*
X208625408Y-111448267D01*
X208620720Y-111442943D01*
X208589177Y-111401969D01*
X208574128Y-111366283D01*
X208570286Y-111323966D01*
X208570286Y-111261779D01*
X208613742Y-111278182D01*
X208645424Y-111297356D01*
X208672962Y-111342347D01*
X208678711Y-111356752D01*
X208710855Y-111397546D01*
X208754611Y-111418081D01*
X208802254Y-111416235D01*
X208846057Y-111389886D01*
X208861111Y-111373455D01*
X208874763Y-111348667D01*
X208870493Y-111326144D01*
X208845916Y-111302964D01*
X208798651Y-111276202D01*
X208726314Y-111242934D01*
X208577543Y-111177816D01*
X208573595Y-111113308D01*
X208575079Y-111072220D01*
X208672010Y-111072220D01*
X208679368Y-111097657D01*
X208712848Y-111124814D01*
X208773614Y-111155714D01*
X208783669Y-111160190D01*
X208831751Y-111181017D01*
X208867726Y-111195665D01*
X208884444Y-111201200D01*
X208886977Y-111197126D01*
X208887993Y-111172247D01*
X208884369Y-111132257D01*
X208875242Y-111093152D01*
X208846773Y-111043884D01*
X208805678Y-111016122D01*
X208756590Y-111012364D01*
X208704144Y-111035109D01*
X208689609Y-111046481D01*
X208672010Y-111072220D01*
X208575079Y-111072220D01*
X208575338Y-111065064D01*
X208597281Y-111004096D01*
X208624979Y-110970497D01*
X208682405Y-110932966D01*
X208750527Y-110914006D01*
X208820947Y-110915507D01*
X208885267Y-110939355D01*
X208899426Y-110948513D01*
X208931904Y-110976849D01*
X208954116Y-111012695D01*
X208967804Y-111061384D01*
X208974715Y-111128249D01*
X208975628Y-111172247D01*
X208976590Y-111218622D01*
G37*
X213267020Y-110883822D02*
X213334810Y-110915680D01*
X213390366Y-110970770D01*
X213401881Y-110988016D01*
X213411432Y-111007562D01*
X213418206Y-111032198D01*
X213422819Y-111066711D01*
X213425888Y-111115889D01*
X213428029Y-111184519D01*
X213429859Y-111277389D01*
X213434404Y-111535007D01*
X213396225Y-111520491D01*
X213361268Y-111507156D01*
X213335097Y-111494323D01*
X213318013Y-111477780D01*
X213308086Y-111452465D01*
X213303386Y-111413316D01*
X213301982Y-111355268D01*
X213301943Y-111273261D01*
X213301744Y-111207895D01*
X213300559Y-111145173D01*
X213297729Y-111102334D01*
X213292609Y-111074220D01*
X213284553Y-111055675D01*
X213272914Y-111041543D01*
X213244303Y-111021600D01*
X213196239Y-111014083D01*
X213148688Y-111033079D01*
X213145550Y-111035511D01*
X213135769Y-111046748D01*
X213128553Y-111064770D01*
X213123299Y-111094026D01*
X213119402Y-111138962D01*
X213116256Y-111204028D01*
X213113257Y-111293670D01*
X213106000Y-111533697D01*
X213044314Y-111506044D01*
X212982629Y-111478391D01*
X212982629Y-111259246D01*
X212982884Y-111199711D01*
X212985086Y-111116892D01*
X212990661Y-111055227D01*
X213000941Y-111009748D01*
X213017258Y-110975484D01*
X213040943Y-110947466D01*
X213073328Y-110920723D01*
X213119907Y-110893780D01*
X213193287Y-110876191D01*
X213267020Y-110883822D01*
G36*
X213267020Y-110883822D02*
G01*
X213334810Y-110915680D01*
X213390366Y-110970770D01*
X213401881Y-110988016D01*
X213411432Y-111007562D01*
X213418206Y-111032198D01*
X213422819Y-111066711D01*
X213425888Y-111115889D01*
X213428029Y-111184519D01*
X213429859Y-111277389D01*
X213434404Y-111535007D01*
X213396225Y-111520491D01*
X213361268Y-111507156D01*
X213335097Y-111494323D01*
X213318013Y-111477780D01*
X213308086Y-111452465D01*
X213303386Y-111413316D01*
X213301982Y-111355268D01*
X213301943Y-111273261D01*
X213301744Y-111207895D01*
X213300559Y-111145173D01*
X213297729Y-111102334D01*
X213292609Y-111074220D01*
X213284553Y-111055675D01*
X213272914Y-111041543D01*
X213244303Y-111021600D01*
X213196239Y-111014083D01*
X213148688Y-111033079D01*
X213145550Y-111035511D01*
X213135769Y-111046748D01*
X213128553Y-111064770D01*
X213123299Y-111094026D01*
X213119402Y-111138962D01*
X213116256Y-111204028D01*
X213113257Y-111293670D01*
X213106000Y-111533697D01*
X213044314Y-111506044D01*
X212982629Y-111478391D01*
X212982629Y-111259246D01*
X212982884Y-111199711D01*
X212985086Y-111116892D01*
X212990661Y-111055227D01*
X213000941Y-111009748D01*
X213017258Y-110975484D01*
X213040943Y-110947466D01*
X213073328Y-110920723D01*
X213119907Y-110893780D01*
X213193287Y-110876191D01*
X213267020Y-110883822D01*
G37*
X209318829Y-110917097D02*
X209378753Y-110939355D01*
X209403673Y-110956080D01*
X209428910Y-110980043D01*
X209446912Y-111010526D01*
X209458858Y-111052023D01*
X209465930Y-111109032D01*
X209469308Y-111186047D01*
X209470171Y-111287565D01*
X209470002Y-111340027D01*
X209469153Y-111411715D01*
X209467711Y-111468925D01*
X209465814Y-111506809D01*
X209463597Y-111520514D01*
X209449172Y-111515981D01*
X209420054Y-111503670D01*
X209419181Y-111503272D01*
X209404060Y-111495356D01*
X209393891Y-111484495D01*
X209387691Y-111465471D01*
X209384478Y-111433069D01*
X209383270Y-111382071D01*
X209383086Y-111307261D01*
X209382714Y-111259804D01*
X209378750Y-111170615D01*
X209369673Y-111105287D01*
X209354524Y-111060393D01*
X209332345Y-111032507D01*
X209302175Y-111018203D01*
X209297990Y-111017206D01*
X209241480Y-111016427D01*
X209197410Y-111041744D01*
X209166972Y-111092502D01*
X209161544Y-111107175D01*
X209149171Y-111139649D01*
X209142905Y-111154572D01*
X209130036Y-111152516D01*
X209101933Y-111141357D01*
X209075721Y-111122927D01*
X209063771Y-111088098D01*
X209067336Y-111063151D01*
X209089235Y-111012547D01*
X209124644Y-110965128D01*
X209166052Y-110932334D01*
X209183400Y-110924752D01*
X209249089Y-110912076D01*
X209318829Y-110917097D01*
G36*
X209318829Y-110917097D02*
G01*
X209378753Y-110939355D01*
X209403673Y-110956080D01*
X209428910Y-110980043D01*
X209446912Y-111010526D01*
X209458858Y-111052023D01*
X209465930Y-111109032D01*
X209469308Y-111186047D01*
X209470171Y-111287565D01*
X209470002Y-111340027D01*
X209469153Y-111411715D01*
X209467711Y-111468925D01*
X209465814Y-111506809D01*
X209463597Y-111520514D01*
X209449172Y-111515981D01*
X209420054Y-111503670D01*
X209419181Y-111503272D01*
X209404060Y-111495356D01*
X209393891Y-111484495D01*
X209387691Y-111465471D01*
X209384478Y-111433069D01*
X209383270Y-111382071D01*
X209383086Y-111307261D01*
X209382714Y-111259804D01*
X209378750Y-111170615D01*
X209369673Y-111105287D01*
X209354524Y-111060393D01*
X209332345Y-111032507D01*
X209302175Y-111018203D01*
X209297990Y-111017206D01*
X209241480Y-111016427D01*
X209197410Y-111041744D01*
X209166972Y-111092502D01*
X209161544Y-111107175D01*
X209149171Y-111139649D01*
X209142905Y-111154572D01*
X209130036Y-111152516D01*
X209101933Y-111141357D01*
X209075721Y-111122927D01*
X209063771Y-111088098D01*
X209067336Y-111063151D01*
X209089235Y-111012547D01*
X209124644Y-110965128D01*
X209166052Y-110932334D01*
X209183400Y-110924752D01*
X209249089Y-110912076D01*
X209318829Y-110917097D01*
G37*
X211066698Y-111215714D02*
X211065537Y-111272313D01*
X211057345Y-111349462D01*
X211039519Y-111407276D01*
X211009975Y-111451422D01*
X210966625Y-111487568D01*
X210925332Y-111508463D01*
X210855987Y-111520090D01*
X210786736Y-111507377D01*
X210724145Y-111471945D01*
X210674779Y-111415418D01*
X210668818Y-111404995D01*
X210660945Y-111386733D01*
X210655106Y-111363429D01*
X210650999Y-111331085D01*
X210648325Y-111285704D01*
X210646781Y-111223287D01*
X210646734Y-111217748D01*
X210747429Y-111217748D01*
X210747772Y-111270577D01*
X210749942Y-111318362D01*
X210755307Y-111349209D01*
X210765217Y-111369935D01*
X210781021Y-111387356D01*
X210784724Y-111390705D01*
X210832299Y-111415419D01*
X210882635Y-111412890D01*
X210929517Y-111383288D01*
X210943477Y-111367953D01*
X210955160Y-111347622D01*
X210961686Y-111319514D01*
X210964524Y-111276550D01*
X210965143Y-111211647D01*
X210964837Y-111162122D01*
X210962722Y-111113782D01*
X210957390Y-111082587D01*
X210947460Y-111061647D01*
X210931550Y-111044073D01*
X210922204Y-111036159D01*
X210873776Y-111014843D01*
X210823040Y-111018198D01*
X210778987Y-111046107D01*
X210769504Y-111057173D01*
X210757939Y-111078009D01*
X210751252Y-111107106D01*
X210748173Y-111151381D01*
X210747429Y-111217748D01*
X210646734Y-111217748D01*
X210646067Y-111139837D01*
X210645883Y-111031358D01*
X210645829Y-110694601D01*
X210693000Y-110714362D01*
X210705472Y-110719770D01*
X210725324Y-110731985D01*
X210736687Y-110750482D01*
X210742933Y-110782829D01*
X210747429Y-110836593D01*
X210751535Y-110884866D01*
X210756963Y-110916557D01*
X210764739Y-110928383D01*
X210776457Y-110925212D01*
X210806318Y-110914067D01*
X210859684Y-110911304D01*
X210917093Y-110921625D01*
X210966625Y-110943861D01*
X210993876Y-110964443D01*
X211028865Y-111004600D01*
X211051274Y-111056086D01*
X211063190Y-111124568D01*
X211066542Y-111211647D01*
X211066698Y-111215714D01*
G36*
X211066698Y-111215714D02*
G01*
X211065537Y-111272313D01*
X211057345Y-111349462D01*
X211039519Y-111407276D01*
X211009975Y-111451422D01*
X210966625Y-111487568D01*
X210925332Y-111508463D01*
X210855987Y-111520090D01*
X210786736Y-111507377D01*
X210724145Y-111471945D01*
X210674779Y-111415418D01*
X210668818Y-111404995D01*
X210660945Y-111386733D01*
X210655106Y-111363429D01*
X210650999Y-111331085D01*
X210648325Y-111285704D01*
X210646781Y-111223287D01*
X210646734Y-111217748D01*
X210747429Y-111217748D01*
X210747772Y-111270577D01*
X210749942Y-111318362D01*
X210755307Y-111349209D01*
X210765217Y-111369935D01*
X210781021Y-111387356D01*
X210784724Y-111390705D01*
X210832299Y-111415419D01*
X210882635Y-111412890D01*
X210929517Y-111383288D01*
X210943477Y-111367953D01*
X210955160Y-111347622D01*
X210961686Y-111319514D01*
X210964524Y-111276550D01*
X210965143Y-111211647D01*
X210964837Y-111162122D01*
X210962722Y-111113782D01*
X210957390Y-111082587D01*
X210947460Y-111061647D01*
X210931550Y-111044073D01*
X210922204Y-111036159D01*
X210873776Y-111014843D01*
X210823040Y-111018198D01*
X210778987Y-111046107D01*
X210769504Y-111057173D01*
X210757939Y-111078009D01*
X210751252Y-111107106D01*
X210748173Y-111151381D01*
X210747429Y-111217748D01*
X210646734Y-111217748D01*
X210646067Y-111139837D01*
X210645883Y-111031358D01*
X210645829Y-110694601D01*
X210693000Y-110714362D01*
X210705472Y-110719770D01*
X210725324Y-110731985D01*
X210736687Y-110750482D01*
X210742933Y-110782829D01*
X210747429Y-110836593D01*
X210751535Y-110884866D01*
X210756963Y-110916557D01*
X210764739Y-110928383D01*
X210776457Y-110925212D01*
X210806318Y-110914067D01*
X210859684Y-110911304D01*
X210917093Y-110921625D01*
X210966625Y-110943861D01*
X210993876Y-110964443D01*
X211028865Y-111004600D01*
X211051274Y-111056086D01*
X211063190Y-111124568D01*
X211066542Y-111211647D01*
X211066698Y-111215714D01*
G37*
X212514543Y-110715444D02*
X212561714Y-110735342D01*
X212561714Y-111132509D01*
X212561519Y-111235498D01*
X212560998Y-111328141D01*
X212560199Y-111406700D01*
X212559172Y-111467439D01*
X212557963Y-111506623D01*
X212556623Y-111520514D01*
X212556099Y-111520468D01*
X212538287Y-111515420D01*
X212505823Y-111504580D01*
X212460114Y-111488646D01*
X212460114Y-111284173D01*
X212459824Y-111203832D01*
X212458474Y-111145562D01*
X212455369Y-111105909D01*
X212449812Y-111079618D01*
X212441107Y-111061436D01*
X212428556Y-111046107D01*
X212419999Y-111037955D01*
X212373728Y-111015375D01*
X212322728Y-111017375D01*
X212275993Y-111044073D01*
X212269189Y-111050698D01*
X212258293Y-111064456D01*
X212250836Y-111082642D01*
X212246169Y-111110177D01*
X212243642Y-111151981D01*
X212242602Y-111212973D01*
X212242400Y-111298073D01*
X212242303Y-111341234D01*
X212241674Y-111412224D01*
X212240556Y-111469076D01*
X212239063Y-111506828D01*
X212237309Y-111520514D01*
X212236785Y-111520468D01*
X212218973Y-111515420D01*
X212186509Y-111504580D01*
X212140800Y-111488646D01*
X212140823Y-111283237D01*
X212140857Y-111264951D01*
X212142778Y-111169626D01*
X212148678Y-111097543D01*
X212160001Y-111043813D01*
X212178187Y-111003549D01*
X212204679Y-110971861D01*
X212240918Y-110943861D01*
X212276263Y-110926333D01*
X212332773Y-110912785D01*
X212388356Y-110912015D01*
X212431086Y-110925195D01*
X212434298Y-110927015D01*
X212444205Y-110926820D01*
X212450975Y-110911572D01*
X212455861Y-110876613D01*
X212460114Y-110817289D01*
X212467371Y-110695547D01*
X212514543Y-110715444D01*
G36*
X212514543Y-110715444D02*
G01*
X212561714Y-110735342D01*
X212561714Y-111132509D01*
X212561519Y-111235498D01*
X212560998Y-111328141D01*
X212560199Y-111406700D01*
X212559172Y-111467439D01*
X212557963Y-111506623D01*
X212556623Y-111520514D01*
X212556099Y-111520468D01*
X212538287Y-111515420D01*
X212505823Y-111504580D01*
X212460114Y-111488646D01*
X212460114Y-111284173D01*
X212459824Y-111203832D01*
X212458474Y-111145562D01*
X212455369Y-111105909D01*
X212449812Y-111079618D01*
X212441107Y-111061436D01*
X212428556Y-111046107D01*
X212419999Y-111037955D01*
X212373728Y-111015375D01*
X212322728Y-111017375D01*
X212275993Y-111044073D01*
X212269189Y-111050698D01*
X212258293Y-111064456D01*
X212250836Y-111082642D01*
X212246169Y-111110177D01*
X212243642Y-111151981D01*
X212242602Y-111212973D01*
X212242400Y-111298073D01*
X212242303Y-111341234D01*
X212241674Y-111412224D01*
X212240556Y-111469076D01*
X212239063Y-111506828D01*
X212237309Y-111520514D01*
X212236785Y-111520468D01*
X212218973Y-111515420D01*
X212186509Y-111504580D01*
X212140800Y-111488646D01*
X212140823Y-111283237D01*
X212140857Y-111264951D01*
X212142778Y-111169626D01*
X212148678Y-111097543D01*
X212160001Y-111043813D01*
X212178187Y-111003549D01*
X212204679Y-110971861D01*
X212240918Y-110943861D01*
X212276263Y-110926333D01*
X212332773Y-110912785D01*
X212388356Y-110912015D01*
X212431086Y-110925195D01*
X212434298Y-110927015D01*
X212444205Y-110926820D01*
X212450975Y-110911572D01*
X212455861Y-110876613D01*
X212460114Y-110817289D01*
X212467371Y-110695547D01*
X212514543Y-110715444D01*
G37*
X211925483Y-110926569D02*
X211975376Y-110955661D01*
X211997325Y-110978327D01*
X212039504Y-111046082D01*
X212053714Y-111119950D01*
X212053714Y-111170770D01*
X212006999Y-111151128D01*
X211974692Y-111131308D01*
X211949231Y-111090160D01*
X211946616Y-111081675D01*
X211918478Y-111038451D01*
X211876067Y-111015103D01*
X211827370Y-111014100D01*
X211780373Y-111037914D01*
X211773357Y-111044056D01*
X211749893Y-111070745D01*
X211746019Y-111094014D01*
X211763768Y-111116862D01*
X211805179Y-111142287D01*
X211872286Y-111173288D01*
X211876824Y-111175252D01*
X211951322Y-111209990D01*
X212002203Y-111240763D01*
X212033525Y-111271488D01*
X212049343Y-111306082D01*
X212053714Y-111348462D01*
X212047986Y-111395446D01*
X212019062Y-111455585D01*
X211968178Y-111498788D01*
X211931374Y-111511759D01*
X211879434Y-111518856D01*
X211828999Y-111517340D01*
X211792983Y-111506632D01*
X211789158Y-111503966D01*
X211778998Y-111485337D01*
X211786048Y-111452505D01*
X211798297Y-111426735D01*
X211817939Y-111416006D01*
X211855191Y-111416539D01*
X211906908Y-111413462D01*
X211940701Y-111392212D01*
X211952114Y-111352877D01*
X211952104Y-111351747D01*
X211945187Y-111328913D01*
X211921659Y-111307963D01*
X211875914Y-111283815D01*
X211813704Y-111254741D01*
X211772499Y-111238925D01*
X211748712Y-111239944D01*
X211737597Y-111260837D01*
X211734408Y-111304641D01*
X211734400Y-111374393D01*
X211734044Y-111417452D01*
X211732413Y-111470626D01*
X211729761Y-111507022D01*
X211726422Y-111520514D01*
X211725530Y-111520423D01*
X211706237Y-111513110D01*
X211674284Y-111497678D01*
X211630124Y-111474842D01*
X211635371Y-111269078D01*
X211635736Y-111255432D01*
X211639904Y-111159651D01*
X211647268Y-111087462D01*
X211659330Y-111034058D01*
X211677593Y-110994633D01*
X211703560Y-110964380D01*
X211738733Y-110938493D01*
X211739384Y-110938087D01*
X211796256Y-110916968D01*
X211862033Y-110913400D01*
X211925483Y-110926569D01*
G36*
X211925483Y-110926569D02*
G01*
X211975376Y-110955661D01*
X211997325Y-110978327D01*
X212039504Y-111046082D01*
X212053714Y-111119950D01*
X212053714Y-111170770D01*
X212006999Y-111151128D01*
X211974692Y-111131308D01*
X211949231Y-111090160D01*
X211946616Y-111081675D01*
X211918478Y-111038451D01*
X211876067Y-111015103D01*
X211827370Y-111014100D01*
X211780373Y-111037914D01*
X211773357Y-111044056D01*
X211749893Y-111070745D01*
X211746019Y-111094014D01*
X211763768Y-111116862D01*
X211805179Y-111142287D01*
X211872286Y-111173288D01*
X211876824Y-111175252D01*
X211951322Y-111209990D01*
X212002203Y-111240763D01*
X212033525Y-111271488D01*
X212049343Y-111306082D01*
X212053714Y-111348462D01*
X212047986Y-111395446D01*
X212019062Y-111455585D01*
X211968178Y-111498788D01*
X211931374Y-111511759D01*
X211879434Y-111518856D01*
X211828999Y-111517340D01*
X211792983Y-111506632D01*
X211789158Y-111503966D01*
X211778998Y-111485337D01*
X211786048Y-111452505D01*
X211798297Y-111426735D01*
X211817939Y-111416006D01*
X211855191Y-111416539D01*
X211906908Y-111413462D01*
X211940701Y-111392212D01*
X211952114Y-111352877D01*
X211952104Y-111351747D01*
X211945187Y-111328913D01*
X211921659Y-111307963D01*
X211875914Y-111283815D01*
X211813704Y-111254741D01*
X211772499Y-111238925D01*
X211748712Y-111239944D01*
X211737597Y-111260837D01*
X211734408Y-111304641D01*
X211734400Y-111374393D01*
X211734044Y-111417452D01*
X211732413Y-111470626D01*
X211729761Y-111507022D01*
X211726422Y-111520514D01*
X211725530Y-111520423D01*
X211706237Y-111513110D01*
X211674284Y-111497678D01*
X211630124Y-111474842D01*
X211635371Y-111269078D01*
X211635736Y-111255432D01*
X211639904Y-111159651D01*
X211647268Y-111087462D01*
X211659330Y-111034058D01*
X211677593Y-110994633D01*
X211703560Y-110964380D01*
X211738733Y-110938493D01*
X211739384Y-110938087D01*
X211796256Y-110916968D01*
X211862033Y-110913400D01*
X211925483Y-110926569D01*
G37*
X211949933Y-106208371D02*
X212025856Y-106208865D01*
X212080491Y-106210135D01*
X212117500Y-106212547D01*
X212140547Y-106216467D01*
X212153296Y-106222262D01*
X212159411Y-106230299D01*
X212162556Y-106240943D01*
X212162646Y-106241325D01*
X212167814Y-106266347D01*
X212177209Y-106314681D01*
X212189867Y-106381260D01*
X212204825Y-106461014D01*
X212221119Y-106548875D01*
X212222448Y-106556064D01*
X212238691Y-106641340D01*
X212253805Y-106716242D01*
X212266808Y-106776219D01*
X212276715Y-106816717D01*
X212282544Y-106833184D01*
X212282575Y-106833210D01*
X212300943Y-106842320D01*
X212338640Y-106857457D01*
X212387543Y-106875358D01*
X212390297Y-106876330D01*
X212452817Y-106899959D01*
X212525543Y-106929595D01*
X212593294Y-106959062D01*
X212704703Y-107009626D01*
X212951399Y-106841160D01*
X212968775Y-106829311D01*
X213043202Y-106778947D01*
X213109614Y-106734612D01*
X213164039Y-106698916D01*
X213202506Y-106674471D01*
X213221042Y-106663889D01*
X213233743Y-106666315D01*
X213262579Y-106685110D01*
X213307143Y-106722330D01*
X213368670Y-106779020D01*
X213448398Y-106856227D01*
X213455532Y-106863255D01*
X213518796Y-106926222D01*
X213574990Y-106983268D01*
X213620677Y-107030817D01*
X213652414Y-107065297D01*
X213666764Y-107083131D01*
X213666810Y-107083217D01*
X213668633Y-107096795D01*
X213661910Y-107118820D01*
X213644946Y-107152304D01*
X213616044Y-107200261D01*
X213573508Y-107265704D01*
X213515644Y-107351645D01*
X213505783Y-107366151D01*
X213455913Y-107439635D01*
X213411905Y-107504687D01*
X213376380Y-107557417D01*
X213351959Y-107593936D01*
X213341264Y-107610356D01*
X213340458Y-107613834D01*
X213345518Y-107639785D01*
X213360677Y-107682159D01*
X213383463Y-107733728D01*
X213414429Y-107801170D01*
X213449004Y-107881195D01*
X213478366Y-107953629D01*
X213485645Y-107972377D01*
X213504710Y-108020246D01*
X213518715Y-108053596D01*
X213525041Y-108066114D01*
X213532025Y-108067050D01*
X213563413Y-108072461D01*
X213614787Y-108081806D01*
X213680802Y-108094069D01*
X213756113Y-108108232D01*
X213835375Y-108123280D01*
X213913243Y-108138195D01*
X213984370Y-108151961D01*
X214043412Y-108163562D01*
X214085022Y-108171980D01*
X214103857Y-108176199D01*
X214106980Y-108177389D01*
X214114591Y-108183805D01*
X214120254Y-108197465D01*
X214124251Y-108221999D01*
X214126866Y-108261038D01*
X214128384Y-108318213D01*
X214129086Y-108397154D01*
X214129257Y-108501492D01*
X214129257Y-108818799D01*
X214053057Y-108833839D01*
X214043840Y-108835642D01*
X213994891Y-108844980D01*
X213927205Y-108857669D01*
X213848478Y-108872273D01*
X213766400Y-108887355D01*
X213734078Y-108893422D01*
X213661855Y-108908181D01*
X213601666Y-108922137D01*
X213559040Y-108933952D01*
X213539510Y-108942287D01*
X213530660Y-108955905D01*
X213514548Y-108991938D01*
X213498065Y-109038572D01*
X213492263Y-109056034D01*
X213470906Y-109113358D01*
X213443359Y-109181201D01*
X213414107Y-109248355D01*
X213398463Y-109283430D01*
X213376174Y-109335822D01*
X213360857Y-109375058D01*
X213355162Y-109394563D01*
X213355478Y-109396036D01*
X213366281Y-109416729D01*
X213390638Y-109456665D01*
X213426081Y-109511972D01*
X213470136Y-109578781D01*
X213520332Y-109653220D01*
X213685501Y-109895623D01*
X213468503Y-110112983D01*
X213447516Y-110133899D01*
X213383342Y-110196505D01*
X213325990Y-110250495D01*
X213278820Y-110292826D01*
X213245192Y-110320457D01*
X213228467Y-110330343D01*
X213210303Y-110322821D01*
X213172265Y-110301227D01*
X213118726Y-110268151D01*
X213053884Y-110226191D01*
X212981940Y-110177943D01*
X212911275Y-110130291D01*
X212847526Y-110088328D01*
X212795513Y-110055165D01*
X212759279Y-110033378D01*
X212742867Y-110025543D01*
X212741905Y-110025614D01*
X212720103Y-110033338D01*
X212681440Y-110051323D01*
X212633612Y-110076013D01*
X212633110Y-110076284D01*
X212569587Y-110108099D01*
X212526060Y-110123642D01*
X212499052Y-110123685D01*
X212485090Y-110109000D01*
X212479180Y-110094544D01*
X212463229Y-110055831D01*
X212438660Y-109996316D01*
X212406779Y-109919165D01*
X212368893Y-109827541D01*
X212326310Y-109724607D01*
X212280337Y-109613526D01*
X212238667Y-109512472D01*
X212196268Y-109408780D01*
X212158756Y-109316119D01*
X212127388Y-109237642D01*
X212103425Y-109176500D01*
X212088123Y-109135843D01*
X212082743Y-109118825D01*
X212093018Y-109103219D01*
X212121563Y-109077162D01*
X212161971Y-109046887D01*
X212258979Y-108967684D01*
X212345793Y-108866475D01*
X212409322Y-108755116D01*
X212449177Y-108636893D01*
X212464965Y-108515095D01*
X212456296Y-108393010D01*
X212422778Y-108273925D01*
X212364021Y-108161129D01*
X212279632Y-108057911D01*
X212235631Y-108017713D01*
X212130211Y-107946638D01*
X212017410Y-107900301D01*
X211900525Y-107877599D01*
X211782853Y-107877428D01*
X211667690Y-107898687D01*
X211558335Y-107940270D01*
X211458083Y-108001076D01*
X211370233Y-108080001D01*
X211298080Y-108175941D01*
X211244922Y-108287795D01*
X211214057Y-108414457D01*
X211208392Y-108475507D01*
X211216185Y-108607776D01*
X211251284Y-108733266D01*
X211312649Y-108849759D01*
X211399243Y-108955039D01*
X211510029Y-109046887D01*
X211548931Y-109075930D01*
X211578104Y-109102272D01*
X211589257Y-109118800D01*
X211584810Y-109133209D01*
X211570378Y-109171815D01*
X211547173Y-109231201D01*
X211516452Y-109308215D01*
X211479474Y-109399703D01*
X211437496Y-109502516D01*
X211391778Y-109613502D01*
X211350178Y-109714072D01*
X211307222Y-109817947D01*
X211268829Y-109910819D01*
X211236305Y-109989525D01*
X211210958Y-110050899D01*
X211194095Y-110091779D01*
X211187025Y-110109000D01*
X211186943Y-110109204D01*
X211172798Y-110123745D01*
X211145659Y-110123579D01*
X211102023Y-110107927D01*
X211038388Y-110076013D01*
X211033379Y-110073326D01*
X210986125Y-110049150D01*
X210948811Y-110032037D01*
X210929133Y-110025543D01*
X210913005Y-110033218D01*
X210876959Y-110054871D01*
X210825092Y-110087928D01*
X210761445Y-110129810D01*
X210690060Y-110177943D01*
X210619724Y-110225131D01*
X210554670Y-110267267D01*
X210500820Y-110300578D01*
X210462374Y-110322469D01*
X210443534Y-110330343D01*
X210440325Y-110329343D01*
X210417954Y-110313584D01*
X210379733Y-110281033D01*
X210329021Y-110234733D01*
X210269181Y-110177726D01*
X210203571Y-110113058D01*
X209986648Y-109895772D01*
X210155601Y-109647253D01*
X210324553Y-109398733D01*
X210273183Y-109287595D01*
X210273031Y-109287266D01*
X210242183Y-109216418D01*
X210210661Y-109137523D01*
X210185266Y-109067600D01*
X210181423Y-109056322D01*
X210162047Y-109003967D01*
X210144574Y-108963283D01*
X210132388Y-108942287D01*
X210127426Y-108939322D01*
X210097634Y-108929375D01*
X210047047Y-108916505D01*
X209981194Y-108902053D01*
X209905600Y-108887355D01*
X209882957Y-108883210D01*
X209801038Y-108868116D01*
X209724600Y-108853899D01*
X209661337Y-108841995D01*
X209618943Y-108833839D01*
X209542743Y-108818799D01*
X209542743Y-108501492D01*
X209542760Y-108462476D01*
X209543082Y-108367292D01*
X209544033Y-108296255D01*
X209545896Y-108245734D01*
X209548955Y-108212098D01*
X209553494Y-108191718D01*
X209559795Y-108180962D01*
X209568143Y-108176199D01*
X209576224Y-108174270D01*
X209609172Y-108167445D01*
X209661736Y-108157022D01*
X209728569Y-108144018D01*
X209804328Y-108129449D01*
X209883665Y-108114333D01*
X209961237Y-108099685D01*
X210031698Y-108086523D01*
X210089702Y-108075863D01*
X210129904Y-108068721D01*
X210146959Y-108066114D01*
X210148112Y-108064541D01*
X210157385Y-108044119D01*
X210173432Y-108005045D01*
X210193635Y-107953629D01*
X210221672Y-107884353D01*
X210256186Y-107804290D01*
X210288538Y-107733728D01*
X210295952Y-107717889D01*
X210316755Y-107668293D01*
X210329219Y-107630038D01*
X210330863Y-107610356D01*
X210330015Y-107608962D01*
X210316548Y-107588420D01*
X210289850Y-107548516D01*
X210252539Y-107493140D01*
X210207234Y-107426177D01*
X210156552Y-107351517D01*
X210099445Y-107266692D01*
X210056607Y-107200800D01*
X210027460Y-107152478D01*
X210010317Y-107118733D01*
X210003495Y-107096572D01*
X210005306Y-107083002D01*
X210005915Y-107081984D01*
X210022297Y-107062210D01*
X210055695Y-107026175D01*
X210102671Y-106977451D01*
X210159786Y-106919612D01*
X210223603Y-106856227D01*
X210289802Y-106791905D01*
X210354648Y-106731447D01*
X210402299Y-106690655D01*
X210433990Y-106668484D01*
X210450958Y-106663889D01*
X210453175Y-106664921D01*
X210476524Y-106678837D01*
X210518912Y-106706030D01*
X210576369Y-106743889D01*
X210644923Y-106789803D01*
X210720601Y-106841160D01*
X210967298Y-107009626D01*
X211078706Y-106959062D01*
X211081943Y-106957597D01*
X211150343Y-106927965D01*
X211222907Y-106898493D01*
X211284457Y-106875358D01*
X211284729Y-106875262D01*
X211333595Y-106857367D01*
X211371212Y-106842253D01*
X211389457Y-106833184D01*
X211389752Y-106832855D01*
X211395946Y-106814282D01*
X211406139Y-106772045D01*
X211419348Y-106710696D01*
X211434590Y-106634789D01*
X211450881Y-106548875D01*
X211451449Y-106545796D01*
X211467713Y-106458128D01*
X211482608Y-106378741D01*
X211495171Y-106312701D01*
X211504438Y-106265079D01*
X211509444Y-106240943D01*
X211509764Y-106239605D01*
X211513060Y-106229273D01*
X211519738Y-106221506D01*
X211533462Y-106215940D01*
X211557895Y-106212207D01*
X211596702Y-106209942D01*
X211653546Y-106208778D01*
X211732090Y-106208348D01*
X211836000Y-106208286D01*
X211849056Y-106208286D01*
X211949933Y-106208371D01*
G36*
X211949933Y-106208371D02*
G01*
X212025856Y-106208865D01*
X212080491Y-106210135D01*
X212117500Y-106212547D01*
X212140547Y-106216467D01*
X212153296Y-106222262D01*
X212159411Y-106230299D01*
X212162556Y-106240943D01*
X212162646Y-106241325D01*
X212167814Y-106266347D01*
X212177209Y-106314681D01*
X212189867Y-106381260D01*
X212204825Y-106461014D01*
X212221119Y-106548875D01*
X212222448Y-106556064D01*
X212238691Y-106641340D01*
X212253805Y-106716242D01*
X212266808Y-106776219D01*
X212276715Y-106816717D01*
X212282544Y-106833184D01*
X212282575Y-106833210D01*
X212300943Y-106842320D01*
X212338640Y-106857457D01*
X212387543Y-106875358D01*
X212390297Y-106876330D01*
X212452817Y-106899959D01*
X212525543Y-106929595D01*
X212593294Y-106959062D01*
X212704703Y-107009626D01*
X212951399Y-106841160D01*
X212968775Y-106829311D01*
X213043202Y-106778947D01*
X213109614Y-106734612D01*
X213164039Y-106698916D01*
X213202506Y-106674471D01*
X213221042Y-106663889D01*
X213233743Y-106666315D01*
X213262579Y-106685110D01*
X213307143Y-106722330D01*
X213368670Y-106779020D01*
X213448398Y-106856227D01*
X213455532Y-106863255D01*
X213518796Y-106926222D01*
X213574990Y-106983268D01*
X213620677Y-107030817D01*
X213652414Y-107065297D01*
X213666764Y-107083131D01*
X213666810Y-107083217D01*
X213668633Y-107096795D01*
X213661910Y-107118820D01*
X213644946Y-107152304D01*
X213616044Y-107200261D01*
X213573508Y-107265704D01*
X213515644Y-107351645D01*
X213505783Y-107366151D01*
X213455913Y-107439635D01*
X213411905Y-107504687D01*
X213376380Y-107557417D01*
X213351959Y-107593936D01*
X213341264Y-107610356D01*
X213340458Y-107613834D01*
X213345518Y-107639785D01*
X213360677Y-107682159D01*
X213383463Y-107733728D01*
X213414429Y-107801170D01*
X213449004Y-107881195D01*
X213478366Y-107953629D01*
X213485645Y-107972377D01*
X213504710Y-108020246D01*
X213518715Y-108053596D01*
X213525041Y-108066114D01*
X213532025Y-108067050D01*
X213563413Y-108072461D01*
X213614787Y-108081806D01*
X213680802Y-108094069D01*
X213756113Y-108108232D01*
X213835375Y-108123280D01*
X213913243Y-108138195D01*
X213984370Y-108151961D01*
X214043412Y-108163562D01*
X214085022Y-108171980D01*
X214103857Y-108176199D01*
X214106980Y-108177389D01*
X214114591Y-108183805D01*
X214120254Y-108197465D01*
X214124251Y-108221999D01*
X214126866Y-108261038D01*
X214128384Y-108318213D01*
X214129086Y-108397154D01*
X214129257Y-108501492D01*
X214129257Y-108818799D01*
X214053057Y-108833839D01*
X214043840Y-108835642D01*
X213994891Y-108844980D01*
X213927205Y-108857669D01*
X213848478Y-108872273D01*
X213766400Y-108887355D01*
X213734078Y-108893422D01*
X213661855Y-108908181D01*
X213601666Y-108922137D01*
X213559040Y-108933952D01*
X213539510Y-108942287D01*
X213530660Y-108955905D01*
X213514548Y-108991938D01*
X213498065Y-109038572D01*
X213492263Y-109056034D01*
X213470906Y-109113358D01*
X213443359Y-109181201D01*
X213414107Y-109248355D01*
X213398463Y-109283430D01*
X213376174Y-109335822D01*
X213360857Y-109375058D01*
X213355162Y-109394563D01*
X213355478Y-109396036D01*
X213366281Y-109416729D01*
X213390638Y-109456665D01*
X213426081Y-109511972D01*
X213470136Y-109578781D01*
X213520332Y-109653220D01*
X213685501Y-109895623D01*
X213468503Y-110112983D01*
X213447516Y-110133899D01*
X213383342Y-110196505D01*
X213325990Y-110250495D01*
X213278820Y-110292826D01*
X213245192Y-110320457D01*
X213228467Y-110330343D01*
X213210303Y-110322821D01*
X213172265Y-110301227D01*
X213118726Y-110268151D01*
X213053884Y-110226191D01*
X212981940Y-110177943D01*
X212911275Y-110130291D01*
X212847526Y-110088328D01*
X212795513Y-110055165D01*
X212759279Y-110033378D01*
X212742867Y-110025543D01*
X212741905Y-110025614D01*
X212720103Y-110033338D01*
X212681440Y-110051323D01*
X212633612Y-110076013D01*
X212633110Y-110076284D01*
X212569587Y-110108099D01*
X212526060Y-110123642D01*
X212499052Y-110123685D01*
X212485090Y-110109000D01*
X212479180Y-110094544D01*
X212463229Y-110055831D01*
X212438660Y-109996316D01*
X212406779Y-109919165D01*
X212368893Y-109827541D01*
X212326310Y-109724607D01*
X212280337Y-109613526D01*
X212238667Y-109512472D01*
X212196268Y-109408780D01*
X212158756Y-109316119D01*
X212127388Y-109237642D01*
X212103425Y-109176500D01*
X212088123Y-109135843D01*
X212082743Y-109118825D01*
X212093018Y-109103219D01*
X212121563Y-109077162D01*
X212161971Y-109046887D01*
X212258979Y-108967684D01*
X212345793Y-108866475D01*
X212409322Y-108755116D01*
X212449177Y-108636893D01*
X212464965Y-108515095D01*
X212456296Y-108393010D01*
X212422778Y-108273925D01*
X212364021Y-108161129D01*
X212279632Y-108057911D01*
X212235631Y-108017713D01*
X212130211Y-107946638D01*
X212017410Y-107900301D01*
X211900525Y-107877599D01*
X211782853Y-107877428D01*
X211667690Y-107898687D01*
X211558335Y-107940270D01*
X211458083Y-108001076D01*
X211370233Y-108080001D01*
X211298080Y-108175941D01*
X211244922Y-108287795D01*
X211214057Y-108414457D01*
X211208392Y-108475507D01*
X211216185Y-108607776D01*
X211251284Y-108733266D01*
X211312649Y-108849759D01*
X211399243Y-108955039D01*
X211510029Y-109046887D01*
X211548931Y-109075930D01*
X211578104Y-109102272D01*
X211589257Y-109118800D01*
X211584810Y-109133209D01*
X211570378Y-109171815D01*
X211547173Y-109231201D01*
X211516452Y-109308215D01*
X211479474Y-109399703D01*
X211437496Y-109502516D01*
X211391778Y-109613502D01*
X211350178Y-109714072D01*
X211307222Y-109817947D01*
X211268829Y-109910819D01*
X211236305Y-109989525D01*
X211210958Y-110050899D01*
X211194095Y-110091779D01*
X211187025Y-110109000D01*
X211186943Y-110109204D01*
X211172798Y-110123745D01*
X211145659Y-110123579D01*
X211102023Y-110107927D01*
X211038388Y-110076013D01*
X211033379Y-110073326D01*
X210986125Y-110049150D01*
X210948811Y-110032037D01*
X210929133Y-110025543D01*
X210913005Y-110033218D01*
X210876959Y-110054871D01*
X210825092Y-110087928D01*
X210761445Y-110129810D01*
X210690060Y-110177943D01*
X210619724Y-110225131D01*
X210554670Y-110267267D01*
X210500820Y-110300578D01*
X210462374Y-110322469D01*
X210443534Y-110330343D01*
X210440325Y-110329343D01*
X210417954Y-110313584D01*
X210379733Y-110281033D01*
X210329021Y-110234733D01*
X210269181Y-110177726D01*
X210203571Y-110113058D01*
X209986648Y-109895772D01*
X210155601Y-109647253D01*
X210324553Y-109398733D01*
X210273183Y-109287595D01*
X210273031Y-109287266D01*
X210242183Y-109216418D01*
X210210661Y-109137523D01*
X210185266Y-109067600D01*
X210181423Y-109056322D01*
X210162047Y-109003967D01*
X210144574Y-108963283D01*
X210132388Y-108942287D01*
X210127426Y-108939322D01*
X210097634Y-108929375D01*
X210047047Y-108916505D01*
X209981194Y-108902053D01*
X209905600Y-108887355D01*
X209882957Y-108883210D01*
X209801038Y-108868116D01*
X209724600Y-108853899D01*
X209661337Y-108841995D01*
X209618943Y-108833839D01*
X209542743Y-108818799D01*
X209542743Y-108501492D01*
X209542760Y-108462476D01*
X209543082Y-108367292D01*
X209544033Y-108296255D01*
X209545896Y-108245734D01*
X209548955Y-108212098D01*
X209553494Y-108191718D01*
X209559795Y-108180962D01*
X209568143Y-108176199D01*
X209576224Y-108174270D01*
X209609172Y-108167445D01*
X209661736Y-108157022D01*
X209728569Y-108144018D01*
X209804328Y-108129449D01*
X209883665Y-108114333D01*
X209961237Y-108099685D01*
X210031698Y-108086523D01*
X210089702Y-108075863D01*
X210129904Y-108068721D01*
X210146959Y-108066114D01*
X210148112Y-108064541D01*
X210157385Y-108044119D01*
X210173432Y-108005045D01*
X210193635Y-107953629D01*
X210221672Y-107884353D01*
X210256186Y-107804290D01*
X210288538Y-107733728D01*
X210295952Y-107717889D01*
X210316755Y-107668293D01*
X210329219Y-107630038D01*
X210330863Y-107610356D01*
X210330015Y-107608962D01*
X210316548Y-107588420D01*
X210289850Y-107548516D01*
X210252539Y-107493140D01*
X210207234Y-107426177D01*
X210156552Y-107351517D01*
X210099445Y-107266692D01*
X210056607Y-107200800D01*
X210027460Y-107152478D01*
X210010317Y-107118733D01*
X210003495Y-107096572D01*
X210005306Y-107083002D01*
X210005915Y-107081984D01*
X210022297Y-107062210D01*
X210055695Y-107026175D01*
X210102671Y-106977451D01*
X210159786Y-106919612D01*
X210223603Y-106856227D01*
X210289802Y-106791905D01*
X210354648Y-106731447D01*
X210402299Y-106690655D01*
X210433990Y-106668484D01*
X210450958Y-106663889D01*
X210453175Y-106664921D01*
X210476524Y-106678837D01*
X210518912Y-106706030D01*
X210576369Y-106743889D01*
X210644923Y-106789803D01*
X210720601Y-106841160D01*
X210967298Y-107009626D01*
X211078706Y-106959062D01*
X211081943Y-106957597D01*
X211150343Y-106927965D01*
X211222907Y-106898493D01*
X211284457Y-106875358D01*
X211284729Y-106875262D01*
X211333595Y-106857367D01*
X211371212Y-106842253D01*
X211389457Y-106833184D01*
X211389752Y-106832855D01*
X211395946Y-106814282D01*
X211406139Y-106772045D01*
X211419348Y-106710696D01*
X211434590Y-106634789D01*
X211450881Y-106548875D01*
X211451449Y-106545796D01*
X211467713Y-106458128D01*
X211482608Y-106378741D01*
X211495171Y-106312701D01*
X211504438Y-106265079D01*
X211509444Y-106240943D01*
X211509764Y-106239605D01*
X211513060Y-106229273D01*
X211519738Y-106221506D01*
X211533462Y-106215940D01*
X211557895Y-106212207D01*
X211596702Y-106209942D01*
X211653546Y-106208778D01*
X211732090Y-106208348D01*
X211836000Y-106208286D01*
X211849056Y-106208286D01*
X211949933Y-106208371D01*
G37*
X209803495Y-110912220D02*
X209834599Y-110920121D01*
X209863559Y-110939817D01*
X209900831Y-110976484D01*
X209924801Y-111002378D01*
X209949770Y-111035997D01*
X209961031Y-111067506D01*
X209963657Y-111107485D01*
X209963657Y-111172917D01*
X209919035Y-111149842D01*
X209883673Y-111121724D01*
X209859451Y-111083848D01*
X209855291Y-111073551D01*
X209823594Y-111033637D01*
X209779554Y-111013624D01*
X209731531Y-111015572D01*
X209687886Y-111041543D01*
X209669420Y-111062635D01*
X209658663Y-111089619D01*
X209670178Y-111113634D01*
X209705981Y-111137791D01*
X209768090Y-111165199D01*
X209777515Y-111168985D01*
X209834058Y-111193759D01*
X209882580Y-111218189D01*
X209913451Y-111237486D01*
X209944371Y-111271953D01*
X209964927Y-111326957D01*
X209962744Y-111385983D01*
X209938424Y-111441845D01*
X209892568Y-111487355D01*
X209855438Y-111506727D01*
X209783711Y-111520292D01*
X209743852Y-111518462D01*
X209706953Y-111508568D01*
X209692797Y-111487806D01*
X209698091Y-111453613D01*
X209699631Y-111449092D01*
X209711842Y-111425116D01*
X209732174Y-111416042D01*
X209770908Y-111416649D01*
X209798257Y-111417474D01*
X209830257Y-111410392D01*
X209852182Y-111389219D01*
X209864670Y-111363152D01*
X209866062Y-111335845D01*
X209865998Y-111335685D01*
X209849807Y-111320930D01*
X209815155Y-111299457D01*
X209770321Y-111275458D01*
X209723582Y-111253125D01*
X209683217Y-111236652D01*
X209657504Y-111230229D01*
X209653679Y-111236518D01*
X209648864Y-111266115D01*
X209645566Y-111314447D01*
X209644343Y-111375372D01*
X209644058Y-111417542D01*
X209642718Y-111470653D01*
X209640528Y-111507025D01*
X209637769Y-111520514D01*
X209623344Y-111515981D01*
X209594226Y-111503670D01*
X209557257Y-111486826D01*
X209557257Y-111270721D01*
X209557493Y-111215327D01*
X209559729Y-111131207D01*
X209565423Y-111068800D01*
X209575903Y-111023358D01*
X209592497Y-110990133D01*
X209616531Y-110964378D01*
X209649333Y-110941344D01*
X209691124Y-110922335D01*
X209768287Y-110910914D01*
X209803495Y-110912220D01*
G36*
X209803495Y-110912220D02*
G01*
X209834599Y-110920121D01*
X209863559Y-110939817D01*
X209900831Y-110976484D01*
X209924801Y-111002378D01*
X209949770Y-111035997D01*
X209961031Y-111067506D01*
X209963657Y-111107485D01*
X209963657Y-111172917D01*
X209919035Y-111149842D01*
X209883673Y-111121724D01*
X209859451Y-111083848D01*
X209855291Y-111073551D01*
X209823594Y-111033637D01*
X209779554Y-111013624D01*
X209731531Y-111015572D01*
X209687886Y-111041543D01*
X209669420Y-111062635D01*
X209658663Y-111089619D01*
X209670178Y-111113634D01*
X209705981Y-111137791D01*
X209768090Y-111165199D01*
X209777515Y-111168985D01*
X209834058Y-111193759D01*
X209882580Y-111218189D01*
X209913451Y-111237486D01*
X209944371Y-111271953D01*
X209964927Y-111326957D01*
X209962744Y-111385983D01*
X209938424Y-111441845D01*
X209892568Y-111487355D01*
X209855438Y-111506727D01*
X209783711Y-111520292D01*
X209743852Y-111518462D01*
X209706953Y-111508568D01*
X209692797Y-111487806D01*
X209698091Y-111453613D01*
X209699631Y-111449092D01*
X209711842Y-111425116D01*
X209732174Y-111416042D01*
X209770908Y-111416649D01*
X209798257Y-111417474D01*
X209830257Y-111410392D01*
X209852182Y-111389219D01*
X209864670Y-111363152D01*
X209866062Y-111335845D01*
X209865998Y-111335685D01*
X209849807Y-111320930D01*
X209815155Y-111299457D01*
X209770321Y-111275458D01*
X209723582Y-111253125D01*
X209683217Y-111236652D01*
X209657504Y-111230229D01*
X209653679Y-111236518D01*
X209648864Y-111266115D01*
X209645566Y-111314447D01*
X209644343Y-111375372D01*
X209644058Y-111417542D01*
X209642718Y-111470653D01*
X209640528Y-111507025D01*
X209637769Y-111520514D01*
X209623344Y-111515981D01*
X209594226Y-111503670D01*
X209557257Y-111486826D01*
X209557257Y-111270721D01*
X209557493Y-111215327D01*
X209559729Y-111131207D01*
X209565423Y-111068800D01*
X209575903Y-111023358D01*
X209592497Y-110990133D01*
X209616531Y-110964378D01*
X209649333Y-110941344D01*
X209691124Y-110922335D01*
X209768287Y-110910914D01*
X209803495Y-110912220D01*
G37*
X213998299Y-111160055D02*
X213993684Y-111270078D01*
X213991078Y-111293387D01*
X213971660Y-111376352D01*
X213936573Y-111439448D01*
X213883212Y-111487808D01*
X213880196Y-111489804D01*
X213812362Y-111518185D01*
X213741535Y-111520711D01*
X213673289Y-111499097D01*
X213613196Y-111455062D01*
X213566829Y-111390322D01*
X213566050Y-111388761D01*
X213550643Y-111348558D01*
X213539357Y-111302866D01*
X213533370Y-111259972D01*
X213533861Y-111228160D01*
X213542007Y-111215714D01*
X213549244Y-111216471D01*
X213583851Y-111230235D01*
X213623078Y-111255546D01*
X213656448Y-111284845D01*
X213673483Y-111310572D01*
X213691192Y-111345471D01*
X213727485Y-111377212D01*
X213769630Y-111389886D01*
X213785077Y-111386221D01*
X213815569Y-111367774D01*
X213842128Y-111342166D01*
X213853486Y-111318934D01*
X213853482Y-111318848D01*
X213840596Y-111308179D01*
X213806241Y-111288933D01*
X213755593Y-111263813D01*
X213693829Y-111235524D01*
X213693489Y-111235374D01*
X213626388Y-111205498D01*
X213581411Y-111183973D01*
X213554145Y-111167437D01*
X213540178Y-111152531D01*
X213535097Y-111135893D01*
X213534490Y-111114162D01*
X213538712Y-111073013D01*
X213682000Y-111073013D01*
X213696791Y-111085949D01*
X213733644Y-111105333D01*
X213734725Y-111105881D01*
X213778205Y-111126587D01*
X213817102Y-111143105D01*
X213841778Y-111150093D01*
X213851676Y-111140753D01*
X213853486Y-111108748D01*
X213845966Y-111068915D01*
X213819897Y-111032717D01*
X213782154Y-111013950D01*
X213740077Y-111015845D01*
X213701005Y-111041632D01*
X213685647Y-111059451D01*
X213682000Y-111073013D01*
X213538712Y-111073013D01*
X213539833Y-111062086D01*
X213566251Y-110991335D01*
X213610473Y-110935735D01*
X213667697Y-110897239D01*
X213733120Y-110877797D01*
X213801937Y-110879359D01*
X213869347Y-110903878D01*
X213930544Y-110953302D01*
X213964450Y-111002212D01*
X213988806Y-111072027D01*
X213992767Y-111108748D01*
X213998299Y-111160055D01*
G36*
X213998299Y-111160055D02*
G01*
X213993684Y-111270078D01*
X213991078Y-111293387D01*
X213971660Y-111376352D01*
X213936573Y-111439448D01*
X213883212Y-111487808D01*
X213880196Y-111489804D01*
X213812362Y-111518185D01*
X213741535Y-111520711D01*
X213673289Y-111499097D01*
X213613196Y-111455062D01*
X213566829Y-111390322D01*
X213566050Y-111388761D01*
X213550643Y-111348558D01*
X213539357Y-111302866D01*
X213533370Y-111259972D01*
X213533861Y-111228160D01*
X213542007Y-111215714D01*
X213549244Y-111216471D01*
X213583851Y-111230235D01*
X213623078Y-111255546D01*
X213656448Y-111284845D01*
X213673483Y-111310572D01*
X213691192Y-111345471D01*
X213727485Y-111377212D01*
X213769630Y-111389886D01*
X213785077Y-111386221D01*
X213815569Y-111367774D01*
X213842128Y-111342166D01*
X213853486Y-111318934D01*
X213853482Y-111318848D01*
X213840596Y-111308179D01*
X213806241Y-111288933D01*
X213755593Y-111263813D01*
X213693829Y-111235524D01*
X213693489Y-111235374D01*
X213626388Y-111205498D01*
X213581411Y-111183973D01*
X213554145Y-111167437D01*
X213540178Y-111152531D01*
X213535097Y-111135893D01*
X213534490Y-111114162D01*
X213538712Y-111073013D01*
X213682000Y-111073013D01*
X213696791Y-111085949D01*
X213733644Y-111105333D01*
X213734725Y-111105881D01*
X213778205Y-111126587D01*
X213817102Y-111143105D01*
X213841778Y-111150093D01*
X213851676Y-111140753D01*
X213853486Y-111108748D01*
X213845966Y-111068915D01*
X213819897Y-111032717D01*
X213782154Y-111013950D01*
X213740077Y-111015845D01*
X213701005Y-111041632D01*
X213685647Y-111059451D01*
X213682000Y-111073013D01*
X213538712Y-111073013D01*
X213539833Y-111062086D01*
X213566251Y-110991335D01*
X213610473Y-110935735D01*
X213667697Y-110897239D01*
X213733120Y-110877797D01*
X213801937Y-110879359D01*
X213869347Y-110903878D01*
X213930544Y-110953302D01*
X213964450Y-111002212D01*
X213988806Y-111072027D01*
X213992767Y-111108748D01*
X213998299Y-111160055D01*
G37*
X211443691Y-110932467D02*
X211448273Y-110935003D01*
X211485704Y-110964057D01*
X211519170Y-111001410D01*
X211525007Y-111009852D01*
X211536165Y-111029553D01*
X211544136Y-111052935D01*
X211549618Y-111085067D01*
X211553307Y-111131019D01*
X211555899Y-111195859D01*
X211558092Y-111284657D01*
X211558402Y-111299669D01*
X211559400Y-111396999D01*
X211557994Y-111465934D01*
X211554164Y-111506948D01*
X211547889Y-111520514D01*
X211528898Y-111516452D01*
X211496638Y-111504144D01*
X211489041Y-111500545D01*
X211477176Y-111492398D01*
X211468994Y-111479004D01*
X211463643Y-111455608D01*
X211460269Y-111417455D01*
X211458019Y-111359790D01*
X211456040Y-111277857D01*
X211455498Y-111253907D01*
X211453403Y-111178266D01*
X211450683Y-111125328D01*
X211446515Y-111090075D01*
X211440079Y-111067487D01*
X211430550Y-111052544D01*
X211417106Y-111040227D01*
X211377305Y-111018634D01*
X211328341Y-111014476D01*
X211284529Y-111030999D01*
X211253008Y-111065210D01*
X211240914Y-111114114D01*
X211240578Y-111127407D01*
X211233972Y-111151472D01*
X211214470Y-111155144D01*
X211176283Y-111140813D01*
X211167438Y-111136217D01*
X211143534Y-111109186D01*
X211143061Y-111068994D01*
X211165836Y-111013409D01*
X211186727Y-110983117D01*
X211240142Y-110940084D01*
X211306074Y-110915755D01*
X211376574Y-110912443D01*
X211443691Y-110932467D01*
G36*
X211443691Y-110932467D02*
G01*
X211448273Y-110935003D01*
X211485704Y-110964057D01*
X211519170Y-111001410D01*
X211525007Y-111009852D01*
X211536165Y-111029553D01*
X211544136Y-111052935D01*
X211549618Y-111085067D01*
X211553307Y-111131019D01*
X211555899Y-111195859D01*
X211558092Y-111284657D01*
X211558402Y-111299669D01*
X211559400Y-111396999D01*
X211557994Y-111465934D01*
X211554164Y-111506948D01*
X211547889Y-111520514D01*
X211528898Y-111516452D01*
X211496638Y-111504144D01*
X211489041Y-111500545D01*
X211477176Y-111492398D01*
X211468994Y-111479004D01*
X211463643Y-111455608D01*
X211460269Y-111417455D01*
X211458019Y-111359790D01*
X211456040Y-111277857D01*
X211455498Y-111253907D01*
X211453403Y-111178266D01*
X211450683Y-111125328D01*
X211446515Y-111090075D01*
X211440079Y-111067487D01*
X211430550Y-111052544D01*
X211417106Y-111040227D01*
X211377305Y-111018634D01*
X211328341Y-111014476D01*
X211284529Y-111030999D01*
X211253008Y-111065210D01*
X211240914Y-111114114D01*
X211240578Y-111127407D01*
X211233972Y-111151472D01*
X211214470Y-111155144D01*
X211176283Y-111140813D01*
X211167438Y-111136217D01*
X211143534Y-111109186D01*
X211143061Y-111068994D01*
X211165836Y-111013409D01*
X211186727Y-110983117D01*
X211240142Y-110940084D01*
X211306074Y-110915755D01*
X211376574Y-110912443D01*
X211443691Y-110932467D01*
G37*
X214545815Y-111267524D02*
X214547252Y-111379000D01*
X214547651Y-111411339D01*
X214548929Y-111519455D01*
X214549185Y-111602186D01*
X214547634Y-111662426D01*
X214543490Y-111703073D01*
X214535964Y-111727023D01*
X214524271Y-111737171D01*
X214507624Y-111736414D01*
X214485236Y-111727648D01*
X214456321Y-111713769D01*
X214450142Y-111710808D01*
X214424413Y-111696311D01*
X214410976Y-111679065D01*
X214405834Y-111650308D01*
X214404990Y-111601283D01*
X214404952Y-111513257D01*
X214314276Y-111513257D01*
X214258498Y-111510815D01*
X214214640Y-111500908D01*
X214178218Y-111480886D01*
X214175503Y-111478929D01*
X214138546Y-111445869D01*
X214112826Y-111405931D01*
X214096606Y-111353657D01*
X214088148Y-111283588D01*
X214086083Y-111204430D01*
X214230857Y-111204430D01*
X214230882Y-111217697D01*
X214232261Y-111277584D01*
X214236687Y-111316732D01*
X214245461Y-111342153D01*
X214259886Y-111360857D01*
X214260784Y-111361750D01*
X214296237Y-111385952D01*
X214330596Y-111383567D01*
X214369403Y-111354260D01*
X214378895Y-111344244D01*
X214392876Y-111323708D01*
X214400760Y-111296997D01*
X214404245Y-111256499D01*
X214405029Y-111194603D01*
X214404350Y-111157130D01*
X214396983Y-111088980D01*
X214380168Y-111044330D01*
X214352234Y-111019926D01*
X214311509Y-111012514D01*
X214294350Y-111014094D01*
X214264660Y-111029766D01*
X214245031Y-111064691D01*
X214234188Y-111121901D01*
X214230857Y-111204430D01*
X214086083Y-111204430D01*
X214085714Y-111190267D01*
X214086253Y-111122169D01*
X214088707Y-111070587D01*
X214094158Y-111034816D01*
X214103686Y-111008015D01*
X214118371Y-110983338D01*
X214131852Y-110964480D01*
X214180799Y-110913568D01*
X214236256Y-110885918D01*
X214305928Y-110877165D01*
X214385664Y-110885890D01*
X214454595Y-110917185D01*
X214509113Y-110972381D01*
X214513223Y-110978224D01*
X214522808Y-110993753D01*
X214530151Y-111011498D01*
X214535612Y-111035290D01*
X214539550Y-111068958D01*
X214542323Y-111116333D01*
X214544292Y-111181245D01*
X214544528Y-111194603D01*
X214545815Y-111267524D01*
G36*
X214545815Y-111267524D02*
G01*
X214547252Y-111379000D01*
X214547651Y-111411339D01*
X214548929Y-111519455D01*
X214549185Y-111602186D01*
X214547634Y-111662426D01*
X214543490Y-111703073D01*
X214535964Y-111727023D01*
X214524271Y-111737171D01*
X214507624Y-111736414D01*
X214485236Y-111727648D01*
X214456321Y-111713769D01*
X214450142Y-111710808D01*
X214424413Y-111696311D01*
X214410976Y-111679065D01*
X214405834Y-111650308D01*
X214404990Y-111601283D01*
X214404952Y-111513257D01*
X214314276Y-111513257D01*
X214258498Y-111510815D01*
X214214640Y-111500908D01*
X214178218Y-111480886D01*
X214175503Y-111478929D01*
X214138546Y-111445869D01*
X214112826Y-111405931D01*
X214096606Y-111353657D01*
X214088148Y-111283588D01*
X214086083Y-111204430D01*
X214230857Y-111204430D01*
X214230882Y-111217697D01*
X214232261Y-111277584D01*
X214236687Y-111316732D01*
X214245461Y-111342153D01*
X214259886Y-111360857D01*
X214260784Y-111361750D01*
X214296237Y-111385952D01*
X214330596Y-111383567D01*
X214369403Y-111354260D01*
X214378895Y-111344244D01*
X214392876Y-111323708D01*
X214400760Y-111296997D01*
X214404245Y-111256499D01*
X214405029Y-111194603D01*
X214404350Y-111157130D01*
X214396983Y-111088980D01*
X214380168Y-111044330D01*
X214352234Y-111019926D01*
X214311509Y-111012514D01*
X214294350Y-111014094D01*
X214264660Y-111029766D01*
X214245031Y-111064691D01*
X214234188Y-111121901D01*
X214230857Y-111204430D01*
X214086083Y-111204430D01*
X214085714Y-111190267D01*
X214086253Y-111122169D01*
X214088707Y-111070587D01*
X214094158Y-111034816D01*
X214103686Y-111008015D01*
X214118371Y-110983338D01*
X214131852Y-110964480D01*
X214180799Y-110913568D01*
X214236256Y-110885918D01*
X214305928Y-110877165D01*
X214385664Y-110885890D01*
X214454595Y-110917185D01*
X214509113Y-110972381D01*
X214513223Y-110978224D01*
X214522808Y-110993753D01*
X214530151Y-111011498D01*
X214535612Y-111035290D01*
X214539550Y-111068958D01*
X214542323Y-111116333D01*
X214544292Y-111181245D01*
X214544528Y-111194603D01*
X214545815Y-111267524D01*
G37*
%TD*%
M02*
